<svg width="87" height="92" viewBox="0 0 87 92" fill="none" xmlns="http://www.w3.org/2000/svg">
    <path d="M64.7956 1.12896C59.9892 3.61503 58.1661 9.5816 60.6522 14.388C60.6522 14.5537 64.4641 21.8462 66.2873 33.1164C66.453 33.9451 65.2928 34.4423 64.7956 33.7794C54.6856 19.8574 42.9182 13.2278 41.9238 12.7306C40.9293 12.2334 39.9349 11.9019 38.9405 11.7362C36.7859 11.239 34.6313 11.4047 32.4767 12.3992C28.0018 14.5537 26.0129 19.8574 28.0018 24.498C28.1675 24.9952 28.3333 25.4925 28.6647 25.9897C29.1619 27.1498 29.8249 28.973 30.6536 31.2933C30.6536 31.2933 30.9851 32.122 31.4823 33.9451C31.648 34.2766 31.648 34.6081 31.8138 34.9395C31.8138 35.1053 31.8138 35.1053 31.8138 35.271C32.311 38.42 32.8082 43.3922 32.311 50.6846C32.1452 52.0105 30.9851 53.005 29.8249 53.005C28.499 53.005 27.3388 51.8448 27.3388 50.3532C27.6703 47.2041 27.836 41.7348 27.1731 36.5969C26.6759 33.4479 25.1842 30.6303 22.6982 28.6415C18.0575 24.9952 14.4113 23.0064 13.914 22.6749C9.27338 20.1888 3.63828 21.8462 1.15221 26.3211C-1.33386 30.9618 0.323524 36.4312 4.96419 38.9172C5.12993 39.083 26.6759 50.8504 26.6759 71.5676V71.7334C26.6759 71.8991 26.6759 72.0649 26.6759 72.2306C26.6759 72.3963 26.6759 72.3963 26.6759 72.5621C26.8416 75.3796 28.1675 78.0314 30.6536 79.6888C32.311 80.849 34.1341 81.3462 36.1229 81.3462C39.1062 81.3462 41.9238 80.0203 43.9126 77.3685C45.4043 75.2139 46.7302 72.8935 47.8903 70.5732C50.5422 64.7724 50.7079 57.9771 48.0561 52.1763C45.9015 47.5356 43.2497 44.2209 41.758 42.3977C40.9293 41.5691 40.9293 40.2431 41.4266 39.2487C42.421 37.5913 44.7413 37.4256 45.9015 38.9172C49.382 43.3922 52.3653 49.5245 54.0226 53.005C54.3541 53.8337 54.6856 54.3309 54.8513 54.8281C55.0171 54.9938 55.0171 55.3253 55.1828 55.4911C55.3486 55.6568 55.3486 55.8225 55.3486 55.8225C57.6689 61.2919 59.3263 67.7557 59.6577 75.0481C59.8235 77.037 59.6577 79.1916 59.492 81.1805C59.1605 85.1582 61.3151 89.1359 65.1271 90.959C66.2873 91.4562 67.6132 91.7877 68.7733 91.7877C68.7733 91.7877 68.7733 91.7877 68.9391 91.7877C69.1048 91.7877 69.1048 91.7877 69.2705 91.7877C73.414 91.7877 77.0602 89.1359 78.3861 85.1582C97.446 42.5635 79.0491 6.10111 78.2204 4.60946C75.5686 0.466011 69.602 -1.35711 64.7956 1.12896Z"
          fill="white"/>
</svg>
